REM DIRINDEX 1\2,1\4,1\3\5,1\3\6,1\3\7
REM DIRNAME folder01,folder02,folder03,folder04,folder05,folder06,folder07
TITLE ""
FILE "CD2Track11.mp3" MP3
  TRACK 01 AUDIO
    TITLE "0:"
    INDEX 01 00:00:00
  TRACK 02 AUDIO
    TITLE "5:cjc082_1484"
    INDEX 01 00:00:29
  TRACK 03 AUDIO
    TITLE "0:"
    INDEX 01 00:02:00
  TRACK 04 AUDIO
    TITLE "6:cjc082_1485"
    INDEX 01 00:02:49
  TRACK 05 AUDIO
    TITLE "0:"
    INDEX 01 00:04:60
  TRACK 06 AUDIO
    TITLE "5:cjc082_1486"
    INDEX 01 00:05:30
  TRACK 07 AUDIO
    TITLE "0:"
    INDEX 01 00:06:41
  TRACK 08 AUDIO
    TITLE "6:cjc082_1487"
    INDEX 01 00:07:13
  TRACK 09 AUDIO
    TITLE "0:"
    INDEX 01 00:08:32
  TRACK 10 AUDIO
    TITLE "5:cjc082_1488"
    INDEX 01 00:09:06
  TRACK 11 AUDIO
    TITLE "0:"
    INDEX 01 00:10:33
  TRACK 12 AUDIO
    TITLE "6:cjc082_1489"
    INDEX 01 00:11:07
  TRACK 13 AUDIO
    TITLE "0:"
    INDEX 01 00:12:18
  TRACK 14 AUDIO
    TITLE "5:cjc082_1490"
    INDEX 01 00:12:67
  TRACK 15 AUDIO
    TITLE "0:"
    INDEX 01 00:14:39
  TRACK 16 AUDIO
    TITLE "6:cjc082_1491"
    INDEX 01 00:15:07
  TRACK 17 AUDIO
    TITLE "0:"
    INDEX 01 00:16:65
  TRACK 18 AUDIO
    TITLE "5:cjc082_1492"
    INDEX 01 00:17:37
  TRACK 19 AUDIO
    TITLE "0:"
    INDEX 01 00:18:42
  TRACK 20 AUDIO
    TITLE "6:cjc082_1493"
    INDEX 01 00:19:11
  TRACK 21 AUDIO
    TITLE "0:"
    INDEX 01 00:20:36
  TRACK 22 AUDIO
    TITLE "5:cjc082_1494"
    INDEX 01 00:21:06
  TRACK 23 AUDIO
    TITLE "0:"
    INDEX 01 00:22:30
  TRACK 24 AUDIO
    TITLE "6:cjc082_1495"
    INDEX 01 00:23:08
  TRACK 25 AUDIO
    TITLE "0:"
    INDEX 01 00:24:24
  TRACK 26 AUDIO
    TITLE "5:cjc082_1496"
    INDEX 01 00:24:74
  TRACK 27 AUDIO
    TITLE "0:"
    INDEX 01 00:26:24
  TRACK 28 AUDIO
    TITLE "6:cjc082_1497"
    INDEX 01 00:26:71
  TRACK 29 AUDIO
    TITLE "0:"
    INDEX 01 00:28:21
  TRACK 30 AUDIO
    TITLE "5:cjc082_1498"
    INDEX 01 00:28:66
  TRACK 31 AUDIO
    TITLE "0:"
    INDEX 01 00:29:74
  TRACK 32 AUDIO
    TITLE "6:cjc082_1499"
    INDEX 01 00:30:54
  TRACK 33 AUDIO
    TITLE "0:"
    INDEX 01 00:32:43
  TRACK 34 AUDIO
    TITLE "5:cjc082_1500"
    INDEX 01 00:33:19
  TRACK 35 AUDIO
    TITLE "0:"
    INDEX 01 00:34:36
  TRACK 36 AUDIO
    TITLE "6:cjc082_1501"
    INDEX 01 00:35:12
  TRACK 37 AUDIO
    TITLE "0:"
    INDEX 01 00:36:48
  TRACK 38 AUDIO
    TITLE "5:cjc082_1502"
    INDEX 01 00:37:20
  TRACK 39 AUDIO
    TITLE "0:"
    INDEX 01 00:38:53
  TRACK 40 AUDIO
    TITLE "6:cjc082_1503"
    INDEX 01 00:39:23
  TRACK 41 AUDIO
    TITLE "0:"
    INDEX 01 00:41:51
  TRACK 42 AUDIO
    TITLE "5:cjc082_1504"
    INDEX 01 00:42:21
  TRACK 43 AUDIO
    TITLE "0:"
    INDEX 01 00:43:31
  TRACK 44 AUDIO
    TITLE "6:cjc082_1505"
    INDEX 01 00:44:11
  TRACK 45 AUDIO
    TITLE "0:"
    INDEX 01 00:47:09
  TRACK 46 AUDIO
    TITLE "5:cjc082_1506"
    INDEX 01 00:47:54
  TRACK 47 AUDIO
    TITLE "0:"
    INDEX 01 00:48:71
  TRACK 48 AUDIO
    TITLE "6:cjc082_1507"
    INDEX 01 00:49:43
  TRACK 49 AUDIO
    TITLE "0:"
    INDEX 01 00:50:39
  TRACK 50 AUDIO
    TITLE "5:cjc082_1508"
    INDEX 01 00:51:13
  TRACK 51 AUDIO
    TITLE "0:"
    INDEX 01 00:52:63
  TRACK 52 AUDIO
    TITLE "6:cjc082_1509"
    INDEX 01 00:53:35
  TRACK 53 AUDIO
    TITLE "0:"
    INDEX 01 00:55:30
  TRACK 54 AUDIO
    TITLE "5:cjc082_1510"
    INDEX 01 00:56:02
  TRACK 55 AUDIO
    TITLE "0:"
    INDEX 01 00:57:64
  TRACK 56 AUDIO
    TITLE "6:cjc082_1511"
    INDEX 01 00:58:34
  TRACK 57 AUDIO
    TITLE "0:"
    INDEX 01 01:00:08
  TRACK 58 AUDIO
    TITLE "5:cjc082_1512"
    INDEX 01 01:00:57
  TRACK 59 AUDIO
    TITLE "0:"
    INDEX 01 01:01:68
  TRACK 60 AUDIO
    TITLE "6:cjc082_1513"
    INDEX 01 01:02:46
  TRACK 61 AUDIO
    TITLE "0:"
    INDEX 01 01:05:03
  TRACK 62 AUDIO
    TITLE "7:cjc082_1514"
    INDEX 01 01:06:45
  TRACK 63 AUDIO
    TITLE "0:"
    INDEX 01 01:16:48
